<svg width="40" height="40" viewBox="0 0 40 40" fill="none" xmlns="http://www.w3.org/2000/svg">
<path d="M0 36.25C0 38.3203 1.91964 40 4.28571 40H35.7143C38.0804 40 40 38.3203 40 36.25V15H0V36.25ZM28.5714 20.9375C28.5714 20.4219 29.0536 20 29.6429 20H33.2143C33.8036 20 34.2857 20.4219 34.2857 20.9375V24.0625C34.2857 24.5781 33.8036 25 33.2143 25H29.6429C29.0536 25 28.5714 24.5781 28.5714 24.0625V20.9375ZM28.5714 30.9375C28.5714 30.4219 29.0536 30 29.6429 30H33.2143C33.8036 30 34.2857 30.4219 34.2857 30.9375V34.0625C34.2857 34.5781 33.8036 35 33.2143 35H29.6429C29.0536 35 28.5714 34.5781 28.5714 34.0625V30.9375ZM17.1429 20.9375C17.1429 20.4219 17.625 20 18.2143 20H21.7857C22.375 20 22.8571 20.4219 22.8571 20.9375V24.0625C22.8571 24.5781 22.375 25 21.7857 25H18.2143C17.625 25 17.1429 24.5781 17.1429 24.0625V20.9375ZM17.1429 30.9375C17.1429 30.4219 17.625 30 18.2143 30H21.7857C22.375 30 22.8571 30.4219 22.8571 30.9375V34.0625C22.8571 34.5781 22.375 35 21.7857 35H18.2143C17.625 35 17.1429 34.5781 17.1429 34.0625V30.9375ZM5.71429 20.9375C5.71429 20.4219 6.19643 20 6.78571 20H10.3571C10.9464 20 11.4286 20.4219 11.4286 20.9375V24.0625C11.4286 24.5781 10.9464 25 10.3571 25H6.78571C6.19643 25 5.71429 24.5781 5.71429 24.0625V20.9375ZM5.71429 30.9375C5.71429 30.4219 6.19643 30 6.78571 30H10.3571C10.9464 30 11.4286 30.4219 11.4286 30.9375V34.0625C11.4286 34.5781 10.9464 35 10.3571 35H6.78571C6.19643 35 5.71429 34.5781 5.71429 34.0625V30.9375ZM35.7143 5H31.4286V1.25C31.4286 0.5625 30.7857 0 30 0H27.1429C26.3571 0 25.7143 0.5625 25.7143 1.25V5H14.2857V1.25C14.2857 0.5625 13.6429 0 12.8571 0H10C9.21429 0 8.57143 0.5625 8.57143 1.25V5H4.28571C1.91964 5 0 6.67969 0 8.75V12.5H40V8.75C40 6.67969 38.0804 5 35.7143 5Z" fill="#8B8B8B"/>
</svg>
